<?xml version="1.0" encoding="UTF-8" standalone="no"?>
<svg
   width="400"
   height="400"
   version="1.1"
   id="svg599"
   sodipodi:docname="dolphin-emu.svg"
   inkscape:version="1.2.2 (b0a8486541, 2022-12-01)"
   xmlns:inkscape="http://www.inkscape.org/namespaces/inkscape"
   xmlns:sodipodi="http://sodipodi.sourceforge.net/DTD/sodipodi-0.dtd"
   xmlns="http://www.w3.org/2000/svg"
   xmlns:svg="http://www.w3.org/2000/svg">
  <defs
     id="defs603" />
  <sodipodi:namedview
     id="namedview601"
     pagecolor="#ffffff"
     bordercolor="#000000"
     borderopacity="0.25"
     inkscape:showpageshadow="2"
     inkscape:pageopacity="0.0"
     inkscape:pagecheckerboard="0"
     inkscape:deskcolor="#d1d1d1"
     showgrid="false"
     inkscape:zoom="0.81177883"
     inkscape:cx="120.10661"
     inkscape:cy="259.92301"
     inkscape:window-width="681"
     inkscape:window-height="745"
     inkscape:window-x="0"
     inkscape:window-y="21"
     inkscape:window-maximized="1"
     inkscape:current-layer="svg599" />
  <path
     style="fill:#fffdfe; stroke:none;"
     d="M134 77C135.263 70.1997 140.575 41.7793 125.015 48.9892C115.978 53.1766 113.441 66.2492 108.561 74C98.8856 89.3683 91.2513 105.241 82.3465 121C76.2588 131.773 67.6547 145.38 67 158C54.5729 159.273 38.9752 167.566 27 171.947C22.5387 173.579 16.9185 174.758 14.3179 179.185C9.83455 186.818 16.9643 191.31 21.9105 195.754C31.6496 204.505 40.4487 213.584 54 216C54.0024 237.397 62.7611 270.697 87 277C87 297.649 94.3389 324.805 117 332.535C130.925 337.285 144.855 334.238 159 336.209C168.654 337.554 185.592 345.021 194.826 339.682C208.435 331.812 199.09 320.63 188 319L188 318C207.994 311.293 227.79 313.647 243.791 296.83C249.714 290.605 259.092 274.787 246 271L246 270C253.047 270.366 258.218 275.022 265 276.482C275.846 278.818 286.017 276.882 296.576 278.098C310.622 279.716 319.869 287.42 335 284.92C345.695 283.152 359.895 279.501 367.941 271.815C373.236 266.758 374.632 256.842 366 255C375.688 246.52 390.462 241.801 395.91 228.961C398.423 223.039 389.794 204.94 382.999 204.333C377.719 203.86 372.306 207.48 367 207.907C357.104 208.703 346.531 204.436 337 206.275C327.65 208.079 318.519 214.929 310 219C309.133 207.75 323.013 196.968 326.331 186C327.597 181.816 328.764 177.378 328.961 173C329.257 166.406 328.815 151.303 320.011 150.387C315.547 149.922 310.842 154.683 307 156.529C293.614 162.962 281.43 171.722 268 178C286.388 152.25 294.099 122.672 274.862 96C271.366 91.153 272.937 83.0888 265.995 81.3179C258.767 79.4738 249.549 82.9255 243 85.7199C228.499 91.9073 214.541 98.9557 200 105C205.033 91.1943 209.077 76.8933 214.177 63C215.97 58.1171 220.366 52.4898 217.424 47.2245C213.007 39.3212 200.928 46.0215 195 48.1767C174.972 55.4581 151.416 64.6011 134 77z"
     id="path415" />
  <path
     style="fill:#fd099c; stroke:none;"
     d="M128 85C128.681 79.6088 135.161 57.0392 129.686 54.1366C122.026 50.0757 114.459 73.4537 111.641 77.7145C100.087 95.1882 91.2947 113.295 82.0772 132C77.2767 141.741 70.5076 151.891 70 163L46 171L46 172L207 172L250 172C254.366 172 262.572 173.57 266.312 170.987C270.186 168.31 272.365 161.126 274.15 157C279.81 143.91 283.849 131.426 281.065 117C280.095 111.975 275.752 99.0439 268.87 99.7924C262.473 100.488 257.716 112.161 253 116C256.792 109.91 271.072 96.397 267.382 88.3179C264.991 83.0828 251.874 87.3329 248 88.6991C230.319 94.9336 208.159 103.988 193 115C196.988 98.8199 201.688 82.629 207.471 67C208.892 63.1604 215.01 54.2457 212.867 50.3217C209.973 45.0224 194.977 53.4079 191 54.9074C170.059 62.8035 146.697 72.6305 128 85z"
     id="path417" />
  <path
     style="fill:#fca2c2; stroke:none;"
     d="M212 48L213 49L212 48z"
     id="path419" />
  <path
     style="fill:#f41a52; stroke:none;"
     d="M205 49L206 50L205 49z"
     id="path421" />
  <path
     style="fill:#fca2c2; stroke:none;"
     d="M213 49L214 50L213 49M202 50L203 51L202 50M197 52L198 53L197 52M126 53L127 54L126 53M130 53L131 54L130 53z"
     id="path423" />
  <path
     style="fill:#f41a52; stroke:none;"
     d="M195 53L196 54L195 53M213 53L214 54L213 53M131 54L132 55L131 54z"
     id="path425" />
  <path
     style="fill:#fca2c2; stroke:none;"
     d="M191 54L192 55L191 54M189 55L190 56L189 55M212 55L213 56L212 55z"
     id="path427" />
  <path
     style="fill:#f41a52; stroke:none;"
     d="M123 56L124 57L123 56z"
     id="path429" />
  <path
     style="fill:#fca2c2; stroke:none;"
     d="M181 58L182 59L181 58M179 59L180 60L179 59M210 59L211 60L210 59M120 60L121 61L120 60M177 60L178 61L177 60M131.333 61.6667L131.667 62.3333L131.333 61.6667M175 61L176 62L175 61z"
     id="path431" />
  <path
     style="fill:#f41a52; stroke:none;"
     d="M209 61L210 62L209 61M173 62L174 63L173 62M208 63L209 64L208 63z"
     id="path433" />
  <path
     style="fill:#fca2c2; stroke:none;"
     d="M169 64L170 65L169 64M166 65L167 66L166 65M117 66L118 67L117 66M164 66L165 67L164 66M130.333 67.6667L130.667 68.3333L130.333 67.6667z"
     id="path435" />
  <path
     style="fill:#f41a52; stroke:none;"
     d="M162 67L163 68L162 67z"
     id="path437" />
  <path
     style="fill:#fca2c2; stroke:none;"
     d="M116 68L117 69L116 68M158 69L159 70L158 69M206 69L207 70L206 69M156 70L157 71L156 70M114 71L115 72L114 71z"
     id="path439" />
  <path
     style="fill:#f41a52; stroke:none;"
     d="M205 71L206 72L205 71z"
     id="path441" />
  <path
     style="fill:#fca2c2; stroke:none;"
     d="M152 72L153 73L152 72M205 72L206 73L205 72M129.333 73.6667L129.667 74.3333L129.333 73.6667z"
     id="path443" />
  <path
     style="fill:#f41a52; stroke:none;"
     d="M150 73L151 74L150 73z"
     id="path445" />
  <path
     style="fill:#fca2c2; stroke:none;"
     d="M148 74L149 75L148 74M113 75L114 76L113 75M146 75L147 76L146 75z"
     id="path447" />
  <path
     style="fill:#f41a52; stroke:none;"
     d="M204 75L205 76L204 75z"
     id="path449" />
  <path
     style="fill:#fca2c2; stroke:none;"
     d="M112 76L113 77L112 76M143 76L144 77L143 76M142 77L143 78L142 77M111 78L112 79L111 78M140 78L141 79L140 78M203 78L204 79L203 78M136 79L137 80L136 79M202 79L203 80L202 79M135 80L136 81L135 80M128.333 81.6667L128.667 82.3333L128.333 81.6667M133 81L134 82L133 81z"
     id="path451" />
  <path
     style="fill:#f41a52; stroke:none;"
     d="M108 82L109 83L108 82z"
     id="path453" />
  <path
     style="fill:#fca2c2; stroke:none;"
     d="M130 83L131 84L130 83M106 85L107 86L106 85M261.667 85.3333L262.333 85.6667L261.667 85.3333z"
     id="path455" />
  <path
     style="fill:#f41a52; stroke:none;"
     d="M263.667 85.3333L264.333 85.6667L263.667 85.3333z"
     id="path457" />
  <path
     style="fill:#fca2c2; stroke:none;"
     d="M265 85L266 86L265 85M201 86L202 87L201 86M256 86L257 87L256 86z"
     id="path459" />
  <path
     style="fill:#f41a52; stroke:none;"
     d="M257 86L258 87L257 86z"
     id="path461" />
  <path
     style="fill:#fca2c2; stroke:none;"
     d="M267 86L268 87L267 86M250 87L251 88L250 87z"
     id="path463" />
  <path
     style="fill:#f41a52; stroke:none;"
     d="M251 87L252 88L251 87z"
     id="path465" />
  <path
     style="fill:#fca2c2; stroke:none;"
     d="M104 88L105 89L104 88M200 88L201 89L200 88M248 88L249 89L248 88M103 90L104 91L103 90M243 90L244 91L243 90M241 91L242 92L241 91M199 92L200 93L199 92M239 92L240 93L239 92z"
     id="path467" />
  <path
     style="fill:#f41a52; stroke:none;"
     d="M101 93L102 94L101 93M267 93L268 94L267 93z"
     id="path469" />
  <path
     style="fill:#fca2c2; stroke:none;"
     d="M235 94L236 95L235 94M100 95L101 96L100 95M198 95L199 96L198 95M233 95L234 96L233 95z"
     id="path471" />
  <path
     style="fill:#f41a52; stroke:none;"
     d="M99 97L100 98L99 97z"
     id="path473" />
  <path
     style="fill:#fca2c2; stroke:none;"
     d="M197 97L198 98L197 97M229 97L230 98L229 97z"
     id="path475" />
  <path
     style="fill:#f41a52; stroke:none;"
     d="M265 97L266 98L265 97z"
     id="path477" />
  <path
     style="fill:#fca2c2; stroke:none;"
     d="M227 98L228 99L227 98M268 98L269 99L268 98z"
     id="path479" />
  <path
     style="fill:#f41a52; stroke:none;"
     d="M269 98L270 99L269 98z"
     id="path481" />
  <path
     style="fill:#fca2c2; stroke:none;"
     d="M270 98L271 99L270 98M224 99L225 100L224 99z"
     id="path483" />
  <path
     style="fill:#f41a52; stroke:none;"
     d="M271.333 99.6667L271.667 100.333L271.333 99.6667z"
     id="path485" />
  <path
     style="fill:#fca2c2; stroke:none;"
     d="M96 101L97 102L96 101z"
     id="path487" />
  <path
     style="fill:#f41a52; stroke:none;"
     d="M219 101L220 102L219 101M262 101L263 102L262 101M273 101L274 102L273 101z"
     id="path489" />
  <path
     style="fill:#fca2c2; stroke:none;"
     d="M217 102L218 103L217 102M274 102L275 103L274 102M95 103L96 104L95 103M215 103L216 104L215 103M195 104L196 105L195 104M212 104L213 105L212 104M210 105L211 106L210 105M276 105L277 106L276 105M208 106L209 107L208 106M259 106L261 108L259 106M93 107L94 108L93 107M194.333 107.667L194.667 108.333L194.333 107.667M205 107L206 108L205 107z"
     id="path491" />
  <path
     style="fill:#fffdfe; stroke:none;"
     d="M259 107L253 116L259 107z"
     id="path493" />
  <path
     style="fill:#fca2c2; stroke:none;"
     d="M203 108L204 109L203 108M92 109L93 110L92 109M257 109L258 110L257 109M278 109L279 110L278 109z"
     id="path495" />
  <path
     style="fill:#f41a52; stroke:none;"
     d="M258 110L259 111L258 110M198 111L199 112L198 111z"
     id="path497" />
  <path
     style="fill:#fca2c2; stroke:none;"
     d="M257 111L258 112L257 111M279 111L280 112L279 111M91 113L92 114L91 113z"
     id="path499" />
  <path
     style="fill:#f41a52; stroke:none;"
     d="M193 113L194 114L193 113z"
     id="path501" />
  <path
     style="fill:#fca2c2; stroke:none;"
     d="M194 113L195 114L194 113M280 113L281 114L280 113M193 114L194 115L193 114z"
     id="path503" />
  <path
     style="fill:#f41a52; stroke:none;"
     d="M255 114L256 115L255 114z"
     id="path505" />
  <path
     style="fill:#fca2c2; stroke:none;"
     d="M90 115L91 116L90 115M254 115L255 116L254 115z"
     id="path507" />
  <path
     style="fill:#fffdfe; stroke:none;"
     d="M252 116L251 119L252 116z"
     id="path509" />
  <path
     style="fill:#fca2c2; stroke:none;"
     d="M89 118L90 119L89 118M250.333 118.667L250.667 119.333L250.333 118.667M281 118L282 119L281 118M88 119L89 120L88 119z"
     id="path511" />
  <path
     style="fill:#f41a52; stroke:none;"
     d="M281 119L282 120L281 119z"
     id="path513" />
  <path
     style="fill:#fffdfe; stroke:none;"
     d="M249 120L250 121L249 120z"
     id="path515" />
  <path
     style="fill:#fca2c2; stroke:none;"
     d="M87 121L88 122L87 121M248 121L249 122L248 121z"
     id="path517" />
  <path
     style="fill:#f41a52; stroke:none;"
     d="M247 122L248 123L247 122z"
     id="path519" />
  <path
     style="fill:#fca2c2; stroke:none;"
     d="M282 123L282 129L283 129L282 123M84 126L85 127L84 126z"
     id="path521" />
  <path
     style="fill:#f41a52; stroke:none;"
     d="M83 129L84 130L83 129M82 131L83 132L82 131z"
     id="path523" />
  <path
     style="fill:#fca2c2; stroke:none;"
     d="M81 132L82 133L81 132z"
     id="path525" />
  <path
     style="fill:#f41a52; stroke:none;"
     d="M281 134L282 135L281 134M80 135L81 136L80 135z"
     id="path527" />
  <path
     style="fill:#fca2c2; stroke:none;"
     d="M281 135L282 136L281 135z"
     id="path529" />
  <path
     style="fill:#f41a52; stroke:none;"
     d="M79 137L80 138L79 137z"
     id="path531" />
  <path
     style="fill:#fca2c2; stroke:none;"
     d="M78 138L79 139L78 138M77 141L78 142L77 141M280 141L281 142L280 141M76 143L77 144L76 143M279 144L280 145L279 144M74 146L75 147L74 146M278 146L279 147L278 146z"
     id="path533" />
  <path
     style="fill:#f41a52; stroke:none;"
     d="M74 147L75 148L74 147M73 149L74 150L73 149z"
     id="path535" />
  <path
     style="fill:#fca2c2; stroke:none;"
     d="M277 149L278 150L277 149z"
     id="path537" />
  <path
     style="fill:#f41a52; stroke:none;"
     d="M72 151L73 152L72 151M276 151L277 152L276 151M275 153L276 154L275 153M71 154L72 155L71 154z"
     id="path539" />
  <path
     style="fill:#fca2c2; stroke:none;"
     d="M275 154L276 155L275 154z"
     id="path541" />
  <path
     style="fill:#fd099c; stroke:none;"
     d="M290 171L290 172L323 172L321 155L290 171z"
     id="path543" />
  <path
     style="fill:#fca2c2; stroke:none;"
     d="M70 156L71 157L70 156z"
     id="path545" />
  <path
     style="fill:#f41a52; stroke:none;"
     d="M274 156L275 157L274 156M317 156L318 157L317 156M321.333 156.667L321.667 157.333L321.333 156.667M70 157L71 158L70 157z"
     id="path547" />
  <path
     style="fill:#fca2c2; stroke:none;"
     d="M274 157L275 158L274 157M315 157L316 158L315 157M322 157L322 160L323 160L322 157z"
     id="path549" />
  <path
     style="fill:#f41a52; stroke:none;"
     d="M273 158L274 159L273 158M313 158L314 159L313 158M272 160L273 161L272 160M310.667 160.333L311.333 160.667L310.667 160.333M322.333 160.667L322.667 161.333L322.333 160.667M71 161L72 162L71 161z"
     id="path551" />
  <path
     style="fill:#fca2c2; stroke:none;"
     d="M307 161L308 162L307 161z"
     id="path553" />
  <path
     style="fill:#f41a52; stroke:none;"
     d="M308 161L309 162L308 161z"
     id="path555" />
  <path
     style="fill:#fca2c2; stroke:none;"
     d="M66 162L67 163L66 162z"
     id="path557" />
  <path
     style="fill:#f41a52; stroke:none;"
     d="M67 162L67 163L70 163L67 162z"
     id="path559" />
  <path
     style="fill:#fca2c2; stroke:none;"
     d="M305 162L306 163L305 162z"
     id="path561" />
  <path
     style="fill:#f41a52; stroke:none;"
     d="M306 162L307 163L306 162z"
     id="path563" />
  <path
     style="fill:#fca2c2; stroke:none;"
     d="M323 162L324 163L323 162z"
     id="path565" />
  <path
     style="fill:#f41a52; stroke:none;"
     d="M64 163L64 164L67 164L64 163M271 163L272 164L271 163M304 163L305 164L304 163M323 163L323 167L324 167L323 163M61.6667 164.333L62.3333 164.667L61.6667 164.333M270 164L271 165L270 164M301.667 164.333L302.333 164.667L301.667 164.333z"
     id="path567" />
  <path
     style="fill:#fca2c2; stroke:none;"
     d="M59 165L60 166L59 165z"
     id="path569" />
  <path
     style="fill:#f41a52; stroke:none;"
     d="M60 165L61 166L60 165z"
     id="path571" />
  <path
     style="fill:#fca2c2; stroke:none;"
     d="M270 165L271 166L270 165z"
     id="path573" />
  <path
     style="fill:#f41a52; stroke:none;"
     d="M300 165L301 166L300 165z"
     id="path575" />
  <path
     style="fill:#fca2c2; stroke:none;"
     d="M57 166L58 167L57 166z"
     id="path577" />
  <path
     style="fill:#f41a52; stroke:none;"
     d="M58 166L59 167L58 166M298.667 166.333L299.333 166.667L298.667 166.333z"
     id="path579" />
  <path
     style="fill:#fca2c2; stroke:none;"
     d="M52 167L53 168L52 167z"
     id="path581" />
  <path
     style="fill:#f41a52; stroke:none;"
     d="M53.6667 167.333L54.3333 167.667L53.6667 167.333M268 167L269 168L268 167M295 167L296 168L295 167M50 168L50 169L53 169L50 168z"
     id="path583" />
  <path
     style="fill:#fca2c2; stroke:none;"
     d="M268 168L269 169L268 168z"
     id="path585" />
  <path
     style="fill:#f41a52; stroke:none;"
     d="M293.667 168.333L294.333 168.667L293.667 168.333M323 168L323 172L288 172.51L256 188L267 172L46 172L46 171L50 170L50 169C43.2863 170.832 18.6637 175.621 18.2569 184.025C18.0537 188.224 22.1234 189.755 24.7184 192.22C31.5571 198.717 38.2175 205.519 47 209.435C49.9914 210.769 54.9803 210.547 56.9722 213.434C59.1953 216.655 58.6578 223.191 59.159 227C60.2761 235.491 62.3124 244.472 66.5 252C72.1502 262.157 87.5279 268.023 91.3966 278.039C93.6142 283.781 91.1566 290.963 92.2245 296.961C93.7979 305.797 106.281 321.793 114.039 326.247C126.93 333.646 142.977 329.965 157 331.093C164.126 331.667 170.753 334.725 178 334.989C183.738 335.198 197.403 338.556 196.458 328.109C195.982 322.859 183.363 321.08 180 317C185.588 315.232 190.28 311.265 196 309.824C210.895 306.071 222.746 308.159 235.91 297.848C240.375 294.35 250.07 285.176 247.304 278.453C245.377 273.768 242.306 280.087 242 282L241 282C239.905 276.082 239.857 265.979 248.005 265.192C256.367 264.384 270.523 272.86 279 275.211C285.164 276.92 290.884 273.354 297 274.278C309.215 276.122 319.111 282.118 332 280.829C342.372 279.792 353.318 276.349 361.96 270.452C372.218 263.453 365.222 257.362 356 256C362.929 243.821 387.924 243.129 391.238 226.996C392.449 221.106 385.342 215.323 385 209C376.928 209.233 369.223 211.99 361 212C352.895 212.01 343.958 209.2 336 211.189C328.003 213.188 321.901 219.872 314 222.177C309.807 223.4 305.143 220.542 304.658 216.014C304.209 211.822 309.108 208.266 311.059 204.96C316.88 195.093 328.093 180.138 323 168z"
     id="path587" />
  <path
     style="fill:#fca2c2; stroke:none;"
     d="M47 169L48 170L47 169z"
     id="path589" />
  <path
     style="fill:#f41a52; stroke:none;"
     d="M290 171L293 169L290 171z"
     id="path591" />
  <path
     style="fill:#fca2c2; stroke:none;"
     d="M45 170L46 171L45 170z"
     id="path593" />
  <path
     style="fill:#f41a52; stroke:none;"
     d="M267.333 170.667L267.667 171.333L267.333 170.667z"
     id="path595" />
  <path
     style="fill:#fca2c2; stroke:none;"
     d="M42 171L43 172L42 171M289 171L290 172L289 171M36 173L37 174L36 173M266 173L267 174L266 173M30 175L31 176L30 175M282 175L283 176L282 175M27 176L28 177L27 176M278 177L279 178L278 177M22 178L23 179L22 178M277 178L278 179L277 178M20 179L21 180L20 179M262 179L263 180L262 179M323 179L324 180L323 179M261 180L262 181L261 180M273 180L274 181L273 180M270 182L271 183L270 182M17 183L17 186L18 186L17 183M258 184L259 185L258 184M321 185L322 186L321 185M256 186L257 187L256 186M261 186L262 187L261 186M255 188L256 189L255 188M319 189L320 190L319 189M23 190L24 191L23 190M318 191L319 192L318 191M316 195L317 196L316 195M31 198L32 199L31 198M32 199L33 200L32 199M33 200L34 201L33 200M312 201L313 202L312 201M37 203L38 204L37 203M311 204L312 205L311 204M39 205L40 206L39 205M43 207L44 208L43 207M309 207L310 208L309 207M47 209L48 210L47 209M307 209L308 210L307 209M378 209L379 210L378 209M48 210L49 211L48 210M338.667 210.333L339.333 210.667L338.667 210.333M342 210L343 211L342 210M377 210L378 211L377 210M54.6667 211.333L55.3333 211.667L54.6667 211.333M305 211L306 212L305 211M351 211L351 212L355 212L351 211M369 211L370 212L369 211M385 211L385 215L386 215L385 211M332 212L333 213L332 212M328 214L329 215L328 214M325 216L326 217L325 216M386 216L387 217L386 216M304 217L305 218L304 217M323 217L324 218L323 217M387 217L388 218L387 217M321 218L322 219L321 218M320 219L321 220L320 219M388 219L389 220L388 219M389 220L390 221L389 220M58 221L58 224L59 224L58 221M390 221L391 222L390 221M308 222L309 223L308 222M314 222L315 223L314 222M391 223L392 224L391 223M391 227L392 228L391 227M59.3333 229.667L59.6667 230.333L59.3333 229.667M390 229L391 230L390 229M60.3333 233.667L60.6667 234.333L60.3333 233.667M385 234L386 235L385 234M383 236L384 237L383 236M382 237L383 238L382 237M61 239L62 240L61 239M380 239L381 240L380 239M62 242L63 243L62 242M374 243L375 244L374 243M370 245L371 246L370 245M367 247L368 248L367 247M365 248L366 249L365 248M364 249L365 250L364 249M65 250L66 251L65 250M66 251L67 252L66 251M360 251L361 252L360 251M358 252L359 253L358 252M359 256L360 257L359 256M362 257L363 258L362 257M365 258L366 259L365 258M367 260L368 261L367 260M244 265L244 266L253 266L244 265M254 266L255 267L254 266M366 266L367 267L366 266M80 267L81 268L80 267M242 267L243 268L242 267M81 268L82 269L81 268M258 268L259 269L258 268M364 268L365 269L364 268M363 269L364 270L363 269M261 270L262 271L261 270M362 270L363 271L362 270M85 271L86 272L85 271M265 271L266 272L265 271M86 272L87 273L86 272M240 272L241 273L240 272M272 272L273 273L272 272M358 272L359 273L358 272M87 273L88 274L87 273M274 273L275 274L274 273M89 274L90 275L89 274M276 274L277 275L276 274M291 274L292 275L291 274M299 274L300 275L299 274M354 274L355 275L354 274M90 275L91 276L90 275M244.667 275.333L245.333 275.667L244.667 275.333M278.667 275.333L279.333 275.667L278.667 275.333M286 275L287 276L286 275M352 275L353 276L352 275M91 276L92 277L91 276M243 276L244 277L243 276M246 276L247 277L246 276M303 276L304 277L303 276M351 276L352 277L351 276M242 277L243 278L242 277M308 277L309 278L308 277M346 277L347 278L346 277M310 278L311 279L310 278M344 278L345 279L344 278M240 279L241 280L240 279M313.667 279.333L314.333 279.667L313.667 279.333M339 279L340 280L339 279M317.667 280.333L318.333 280.667L317.667 280.333M334 280L335 281L334 280M241 281L242 282L241 281M247 281L248 282L247 281M246 284L247 285L246 284M242 291L243 292L242 291M240 293L241 294L240 293M239 294L240 295L239 294M237 296L238 297L237 296M236 297L237 298L236 297M235 298L236 299L235 298M92 299L93 300L92 299M94 301L95 302L94 301M95 303L96 304L95 303M227 303L228 304L227 303M224 304L225 305L224 304M97 305L98 306L97 305M223 305L224 306L223 305M221 306L222 307L221 306M98 307L99 308L98 307M216 307L217 308L216 307M211.667 308.333L212.333 308.667L211.667 308.333M196 309L197 310L196 309M198 309L198 310L201 310L198 309M202 309L202 310L206 310L202 309M193 310L194 311L193 310M189 312L190 313L189 312M102 313L103 314L102 313M187 313L188 314L187 313M185 314L186 315L185 314M180 317L181 318L180 317M105 318L106 319L105 318M106 319L107 320L106 319M181 319L182 320L181 319M182 320L183 321L182 320M109 322L110 323L109 322M190 323L191 324L190 323M194 324L195 325L194 324M196 325L197 326L196 325M119 328L120 329L119 328M122 329L123 330L122 329M129 330L130 331L129 330M137 331L137 332L145 332L137 331M160 331L161 332L160 331M163 332L164 333L163 332M167 333L168 334L167 333M194 333L195 334L194 333M171.667 334.333L172.333 334.667L171.667 334.333M182 335L182 336L185 336L182 335z"
     id="path597" />
</svg>
